<svg width="47" height="60" viewBox="0 0 47 60" fill="none" xmlns="http://www.w3.org/2000/svg">
<g clip-path="url(#clip0_46_107)">
<path d="M14.5749 31.365V42.5144C14.5743 42.7148 14.5206 42.9115 14.4195 43.0844C14.3183 43.2573 14.1732 43.4002 13.999 43.4986C13.8248 43.5969 13.6277 43.6472 13.4277 43.6443C13.2278 43.6414 13.0322 43.5853 12.8609 43.4819L9.96249 41.7444C9.54231 41.4918 9.19449 41.1345 8.95287 40.7072C8.71124 40.2799 8.58403 39.7973 8.5836 39.3061V34.5649C8.58315 34.0736 8.45594 33.5907 8.21432 33.1633C7.97271 32.7358 7.62492 32.3782 7.20472 32.1252L1.7788 28.8493C1.35861 28.5963 1.01081 28.2388 0.769198 27.8113C0.527587 27.3838 0.400374 26.9009 0.399918 26.4096V1.13485C0.398863 0.932105 0.452078 0.732788 0.554013 0.557674C0.655949 0.382561 0.802874 0.238062 0.979475 0.13924C1.15607 0.0404175 1.35588 -0.00911049 1.55808 -0.00418153C1.76027 0.000747439 1.95744 0.0599529 2.12904 0.167263L4.11188 1.4113C4.51974 1.66723 4.85605 2.02282 5.08928 2.44473C5.32251 2.86663 5.445 3.34101 5.44526 3.82336V22.6415C5.44555 23.1327 5.57271 23.6154 5.81434 24.0427C6.05598 24.47 6.40387 24.8273 6.82415 25.0798L13.2029 28.9253C13.622 29.1789 13.9685 29.5368 14.2089 29.9643C14.4493 30.3917 14.5754 30.8743 14.5749 31.365Z" fill="white"/>
<path d="M20.7841 11.3788L9.69508 4.69974C9.52385 4.59704 9.32856 4.54159 9.12903 4.53903C8.92951 4.53647 8.73286 4.58689 8.55906 4.68516C8.38526 4.78344 8.2405 4.92607 8.13948 5.09857C8.03846 5.27107 7.98478 5.4673 7.98389 5.66732V19.0933C7.98421 19.5846 8.11136 20.0675 8.35299 20.4951C8.59461 20.9226 8.94248 21.2801 9.36277 21.533L15.7305 25.3715C16.1508 25.6243 16.4988 25.9818 16.7404 26.4093C16.9821 26.8369 17.1092 27.3198 17.1094 27.8112V56.2182C17.1098 56.7093 17.237 57.192 17.4786 57.6193C17.7202 58.0465 18.0681 58.4039 18.4882 58.6565L20.4435 59.8355C20.6147 59.9391 20.8102 59.9951 21.0101 59.9981C21.21 60.0011 21.4071 59.9508 21.5813 59.8524C21.7554 59.754 21.9004 59.611 22.0014 59.438C22.1024 59.2651 22.1558 59.0684 22.1561 58.868L22.1602 13.8227C22.1606 13.3309 22.0341 12.8475 21.793 12.4192C21.5518 11.991 21.2043 11.6326 20.7841 11.3788Z" fill="white"/>
<path d="M32.2715 31.365V42.5144C32.2722 42.7146 32.3259 42.9111 32.427 43.0838C32.5281 43.2565 32.673 43.3992 32.847 43.4975C33.021 43.5959 33.2179 43.6462 33.4176 43.6435C33.6174 43.6407 33.8128 43.585 33.9841 43.4819L36.8797 41.7334C37.2999 41.4808 37.6477 41.1235 37.8893 40.6962C38.131 40.2689 38.2582 39.7862 38.2586 39.2951V34.565C38.2589 34.0736 38.3861 33.5907 38.6277 33.1632C38.8693 32.7356 39.2172 32.3781 39.6375 32.1253L45.0758 28.8493C45.496 28.5963 45.8438 28.2388 46.0854 27.8113C46.327 27.3838 46.4542 26.9009 46.4547 26.4096V1.13486C46.4559 0.931905 46.4027 0.732346 46.3007 0.557028C46.1987 0.38171 46.0516 0.237064 45.8748 0.138198C45.698 0.0393323 45.4979 -0.0101259 45.2955 -0.00501101C45.0931 0.000103923 44.8958 0.0596044 44.7242 0.167276L42.7427 1.41131C42.3346 1.66695 41.9981 2.02248 41.7648 2.44445C41.5316 2.86642 41.4092 3.34094 41.4094 3.82337V22.6415C41.4089 23.1327 41.2817 23.6154 41.0401 24.0426C40.7985 24.4699 40.4507 24.8272 40.0305 25.0798L33.6531 28.9253C33.2322 29.1777 32.8837 29.5351 32.6416 29.9627C32.3995 30.3902 32.272 30.8734 32.2715 31.365Z" fill="white"/>
<path d="M26.0622 11.3788L37.1512 4.69974C37.3226 4.59493 37.5187 4.53776 37.7195 4.53412C37.9202 4.53048 38.1183 4.58049 38.2934 4.67901C38.4685 4.77754 38.6143 4.92102 38.7157 5.09471C38.8171 5.26841 38.8706 5.46605 38.8706 5.66732V19.0933C38.8702 19.5846 38.743 20.0675 38.5014 20.495C38.2597 20.9224 37.9119 21.28 37.4917 21.533L31.1213 25.3688C30.7007 25.6213 30.3526 25.9788 30.111 26.4064C29.8693 26.8339 29.7423 27.317 29.7424 27.8085V56.2182C29.742 56.7093 29.6148 57.192 29.3731 57.6193C29.1315 58.0465 28.7837 58.4039 28.3635 58.6565L26.4069 59.8355C26.2357 59.9391 26.0402 59.9951 25.8403 59.9981C25.6404 60.0011 25.4433 59.9508 25.2691 59.8524C25.095 59.754 24.95 59.611 24.849 59.438C24.748 59.2651 24.6946 59.0684 24.6943 58.868L24.686 13.8227C24.6854 13.3309 24.8118 12.8473 25.0529 12.419C25.2941 11.9907 25.6418 11.6324 26.0622 11.3788Z" fill="white"/>
</g>
<defs>
<clipPath id="clip0_46_107">
<rect width="46.0465" height="60" fill="white" transform="translate(0.399902)"/>
</clipPath>
</defs>
</svg>
