<svg width="26" height="26" viewBox="0 0 26 26" fill="none" xmlns="http://www.w3.org/2000/svg">
<path d="M13 25C19.6276 25 25 19.6276 25 13C25 6.3724 19.6276 1 13 1C6.3724 1 1 6.3724 1 13C1 14.92 1.4512 16.7344 2.2516 18.3436C2.4652 18.7708 2.536 19.2592 2.4124 19.7212L1.6984 22.3924C1.62768 22.6567 1.62775 22.935 1.69859 23.1994C1.76942 23.4637 1.90854 23.7047 2.10198 23.8983C2.29541 24.0918 2.53636 24.2311 2.80063 24.3021C3.0649 24.3731 3.3432 24.3733 3.6076 24.3028L6.2788 23.5876C6.74245 23.4705 7.23296 23.5272 7.6576 23.7472C9.31714 24.5735 11.1461 25.0024 13 25Z" stroke="black" stroke-width="2"/>
<path d="M8.2002 11.2002H17.8002M8.2002 15.4002H14.8002" stroke="black" stroke-width="2" stroke-linecap="round"/>
</svg>
